<svg width="105" height="57" viewBox="0 0 105 57" fill="none" xmlns="http://www.w3.org/2000/svg">
<path d="M62.8527 57C51.3956 57 39.9461 57 28.5 57C19.6471 57 15.2207 57 11.729 55.5537C7.07349 53.6253 3.37468 49.9265 1.44629 45.271C6.31575e-06 41.7793 5.7707e-06 37.3529 4.68062e-06 28.5C3.59052e-06 19.6471 3.04548e-06 15.2207 1.44629 11.729C3.37468 7.0735 7.07348 3.37469 11.729 1.4463C15.2207 1.42375e-05 19.6471 1.35529e-05 28.5 1.21837e-05C44.2089 9.75413e-06 59.9178 8.14761e-06 75.6267 5.70762e-06C84.4796 4.33254e-06 88.9061 3.645e-06 92.3977 1.44629C97.0533 3.37468 100.752 7.07348 102.68 11.729C104.127 15.2207 104.127 19.6471 104.127 28.5C104.127 37.3529 104.127 41.7793 102.68 45.271C100.752 49.9265 97.0533 53.6253 92.3978 55.5537C88.9061 57 84.4797 57 75.6268 57C71.3707 57 67.1129 57 62.8527 57ZM46.4848 32.1734C46.4186 32.2447 46.3414 32.3065 46.2811 32.3829C46.2329 32.4439 46.1803 32.507 46.1161 32.5753C46.0301 32.6663 45.9201 32.7441 45.862 32.8503C45.4616 33.5809 45.335 34.3824 45.3065 35.1998C45.2928 35.5924 45.76 36.0086 46.151 35.9816C46.1808 35.9796 46.1996 35.9745 46.2272 35.9863C46.2596 36.0002 46.302 36.0236 46.3366 36.0305C46.4414 36.0513 46.5462 36.0791 46.6511 36.0793C48.127 36.0835 49.6034 36.058 51.0785 36.0902C52.1248 36.113 53.1374 35.9234 54.1407 35.6896C54.8542 35.5233 55.5462 35.2588 56.241 35.0184C57.478 34.5904 58.5871 33.9251 59.6265 33.1391C59.689 33.0918 59.72 33.0027 59.7666 32.9112C59.7815 32.8821 59.7919 32.8628 59.821 32.8479C59.8535 32.8312 59.8997 32.8124 59.9273 32.7884C60.0074 32.7188 60.091 32.648 60.1984 32.5684C60.3371 32.434 60.4758 32.2996 60.6324 32.1493C60.671 32.1129 60.7146 32.0813 60.7472 32.0395C60.8584 31.8967 60.9727 31.7526 61.1109 31.5984C61.3166 31.3967 61.5098 31.1866 61.6678 30.9445C61.8766 30.6247 62.0926 30.2973 62.2443 29.9468C62.3114 29.7919 62.3562 29.6239 62.3816 29.4418C62.3871 29.4023 62.3906 29.3722 62.417 29.3424C62.4401 29.3164 62.4746 29.2841 62.4938 29.2552C62.548 29.1737 62.6079 29.0944 62.6424 29.0053C62.697 28.8642 62.7152 28.7093 62.7649 28.5658C63.2109 27.2785 63.4329 25.9461 63.5037 24.5931C63.5577 23.5626 63.5106 22.5276 63.2995 21.5132C63.2169 21.1161 63.0427 20.7379 62.9069 20.3116C62.856 20.1901 62.8052 20.0685 62.7488 19.9086C62.5229 19.4589 62.3286 18.989 62.0593 18.5669C61.9949 18.466 61.9129 18.3763 61.8228 18.2894C61.5381 18.0142 61.298 17.6754 60.949 17.4883C60.8846 17.4511 60.84 17.3878 60.7878 17.3348C60.6253 17.1699 60.4719 16.991 60.2825 16.8673C59.7117 16.4942 59.1247 16.1451 58.5348 15.8027C57.6564 15.2927 56.7015 14.9773 55.7109 14.7837C55.3711 14.7172 55.0096 14.761 54.6247 14.7599C54.5529 14.7525 54.4833 14.731 54.412 14.7203C54.3724 14.7143 54.3329 14.7095 54.2933 14.7095C49.7243 14.7085 45.1553 14.7062 40.5863 14.7167C40.3503 14.7173 40.1107 14.8163 39.881 14.8939C39.8232 14.9134 39.7866 14.9955 39.7347 15.0449C39.7209 15.058 39.7184 15.079 39.7007 15.0859C39.6955 15.0879 39.6829 15.092 39.6785 15.0954C39.5758 15.1748 39.4163 15.2392 39.3901 15.3386C39.3009 15.6776 39.2496 16.0282 39.2085 16.3773C39.1891 16.5425 39.2356 16.7143 39.2357 16.8832C39.2375 20.8949 39.2387 24.9066 39.2353 28.9184C39.2348 29.4669 39.1939 30.0158 39.2044 30.5639C39.2075 30.7223 39.1941 30.9106 39.3091 31.048C39.4102 31.1689 39.6422 31.2751 39.7385 31.1505C39.8165 31.0494 39.8535 30.9166 39.9383 30.7811C40.2146 30.2928 40.4909 29.8044 40.7989 29.3034C41.0425 28.9852 41.2861 28.6669 41.5641 28.341C41.7555 28.1562 41.9501 27.9746 42.137 27.7853C42.3369 27.5828 42.5439 27.3897 42.7785 27.2285C43.0093 27.0699 43.24 26.911 43.4682 26.7485C43.5798 26.6691 43.6805 26.5743 43.7899 26.4803C43.8113 26.4619 43.8522 26.4553 43.8804 26.4577C44.0695 26.4805 44.2013 26.3955 44.3132 26.2485C44.5365 25.9552 44.5435 25.6216 44.5101 25.2793C44.4879 25.0518 44.437 24.8252 44.4357 24.598C44.4285 23.267 44.4273 21.9359 44.4357 20.605C44.4376 20.2935 44.4546 19.9744 44.7086 19.7324C44.7389 19.7035 44.7452 19.6493 44.7665 19.6044C44.7732 19.5903 44.7829 19.5742 44.7984 19.5763C44.8004 19.5765 44.8099 19.5777 44.8119 19.5774C45.054 19.5491 45.2961 19.4973 45.5383 19.4968C48.2439 19.4908 50.9497 19.4803 53.6551 19.5036C54.1805 19.5082 54.706 19.6459 55.2291 19.7361C55.5448 19.7905 55.8562 19.8701 56.1663 19.94C56.1786 19.9428 56.19 19.944 56.195 19.9556C56.1971 19.9606 56.2053 19.9757 56.2102 19.978C56.4822 20.1034 56.7545 20.2289 57.0585 20.3589C57.9147 20.8658 58.4314 21.5952 58.5364 22.599C58.5628 22.8514 58.6062 23.102 58.6376 23.3911C58.6419 23.4158 58.6461 23.4406 58.6436 23.5092C58.7297 24.4992 58.7138 25.4865 58.5293 26.4647C58.3959 27.1718 58.2146 27.8661 57.7973 28.507C57.5918 28.7677 57.3817 29.0249 57.1832 29.2908C57.1203 29.375 57.0831 29.4784 57.0294 29.5738C57.0235 29.5842 57.0229 29.5952 57.0109 29.5942C57.005 29.5937 56.9854 29.5938 56.981 29.5978C56.7933 29.7717 56.6056 29.9456 56.4175 30.1166C56.4095 30.1238 56.3857 30.1366 56.3749 30.1369C56.3721 30.137 56.3616 30.1382 56.3595 30.1399C56.3114 30.1799 56.2631 30.2201 56.2046 30.2721C56.179 30.2948 56.1594 30.3129 56.1263 30.3214C56.0896 30.3308 56.042 30.3325 56.0057 30.3434C55.9216 30.3688 55.8371 30.393 55.7545 30.4227C55.0559 30.674 54.3701 30.9716 53.6561 31.1663C52.9993 31.3454 52.3165 31.4662 51.6378 31.5189C50.7897 31.5847 49.9342 31.558 49.0818 31.5648C48.5935 31.5688 48.0973 31.5051 47.6193 31.5736C47.2055 31.6329 46.7749 31.7668 46.4848 32.1734ZM46.998 30.7309C47.2539 30.6421 47.5053 30.5363 47.7663 30.4671C49.196 30.0881 50.622 30.2088 52.0497 30.4982C52.3425 30.5576 52.6622 30.5942 52.9515 30.5418C54.2994 30.2978 55.4376 29.5788 56.569 28.861C56.8388 28.6899 56.865 28.4248 56.6534 28.1795C56.4913 27.9917 56.2892 27.8103 56.0672 27.7076C55.4916 27.4412 54.9066 27.185 54.305 26.9867C51.8214 26.1678 49.2929 25.893 46.711 26.4538C45.5427 26.7075 44.4331 27.1143 43.4388 27.7949C42.1992 28.6435 41.2857 29.7727 40.6176 31.1075C39.8445 32.6518 39.3659 34.2885 39.3239 36.0128C39.267 38.3523 39.2948 40.694 39.2958 43.0347C39.296 43.5509 39.302 44.0713 39.3663 44.5821C39.4391 45.1602 39.759 45.6344 40.6166 45.6307C45.1624 45.6111 49.7083 45.6215 54.2542 45.622C54.3983 45.622 54.5429 45.6215 54.6865 45.6313C55.7244 45.7027 56.7327 45.5492 57.7191 45.2329C59.2217 44.751 60.5714 43.9793 61.825 43.0347C62.5142 42.5153 63.1948 41.9934 63.6516 41.2229C64.3179 40.0989 64.8235 38.9263 64.9221 37.6117C65.1085 35.1274 64.0456 33.1448 62.3953 31.405C62.2687 31.2715 62.1805 31.3091 62.1165 31.4714C62.0607 31.6131 62.0023 31.7551 61.9295 31.8885C61.4781 32.7149 60.7833 33.3071 60.0224 33.8268C59.9011 33.9097 59.7779 33.9897 59.6531 34.0683C59.1225 34.4027 58.9153 35.0982 59.2483 35.6297C59.7936 36.5 59.8446 38.0802 58.7916 39.0696C57.6877 40.1068 56.3362 40.6765 54.8632 40.7197C51.8888 40.807 48.9103 40.7584 45.9335 40.7578C44.9632 40.7576 44.3832 40.1672 44.38 39.1975C44.3758 37.9254 44.3589 36.6527 44.3875 35.3812C44.3996 34.8436 44.4662 34.297 44.5911 33.7742C44.9164 32.4123 45.6447 31.3424 46.998 30.7309Z" fill="#4D87B7"/>
</svg>
